<?xml version="1.0" encoding="UTF-8" standalone="no"?>
<!DOCTYPE svg PUBLIC "-//W3C//DTD SVG 1.1//EN" "http://www.w3.org/Graphics/SVG/1.1/DTD/svg11.dtd">
<svg width="100%" height="100%" viewBox="0 0 791 999" version="1.1" xmlns="http://www.w3.org/2000/svg" xmlns:xlink="http://www.w3.org/1999/xlink" xml:space="preserve" xmlns:serif="http://www.serif.com/" style="fill-rule:evenodd;clip-rule:evenodd;stroke-linejoin:round;stroke-miterlimit:2;">
    <g transform="matrix(1,0,0,1,-604.75,-500.88)">
        <path d="M1395.24,1295L1395.24,1409.87C1395.24,1434.92 1386.18,1455.98 1368.59,1472.77C1351.26,1490.09 1330.21,1498.89 1306.22,1498.89L1305.15,1498.89C1281.17,1498.89 1260.11,1490.1 1242.52,1472.51C1224.93,1455.99 1216.13,1434.93 1216.13,1409.88L1216.13,1295C1216.13,1255.82 1203.07,1223.31 1176.15,1195.32C1175.35,1194.25 1174.29,1193.19 1173.49,1192.39C1168.69,1187.59 1163.9,1183.06 1158.83,1179.33C1184.95,1172.67 1210.54,1163.07 1235.32,1150.28C1274.23,1130.29 1303.28,1107.1 1321.67,1089.25C1326.2,1094.58 1330.46,1099.91 1334.46,1105.24C1374.72,1159.88 1395.24,1223.58 1395.24,1295Z" style="fill-rule:nonzero;"/>
        <path d="M1395.13,825.94C1395.13,914.7 1363.24,991.93 1299.84,1054.94L1298.69,1056.48C1283.32,1071.47 1255.65,1094.9 1217.23,1114.5C1178.42,1134.48 1129.24,1150.62 1070.46,1150.62L784.19,1150.62L784.19,1407.22C784.19,1430.04 776.51,1452.7 761.05,1469.49C743.28,1488.79 720.67,1499.12 695.05,1499.12L693.9,1499.12C668.92,1499.12 647.4,1489.9 630.88,1472.23C613.59,1456.09 604.75,1434.96 604.75,1409.98L604.75,1052.26C604.75,1006.92 641.25,970.42 686.21,970.42L1070.83,970.42C1104.8,970.42 1138.39,959.16 1164.17,937.03C1199.25,906.93 1216.03,870.45 1216.06,826.06C1216.09,785.7 1199.07,746.17 1169.43,718.78C1141.84,693.28 1109.29,680.7 1070.82,680.7L713.61,680.7C663.95,680.7 623.7,640.45 623.7,590.79C623.7,541.13 663.95,500.88 713.61,500.88L1070.83,500.88C1159.97,500.88 1237.2,533.15 1299.83,596.17C1363.23,659.57 1395.13,736.8 1395.13,825.94Z" style="fill-rule:nonzero;"/>
    </g>
</svg>
